<svg width="64" height="64" viewBox="0 0 64 64" fill="none" xmlns="http://www.w3.org/2000/svg">
          <path d="M32 13.3334C42.4 13.3334 50.6667 21.6 50.6667 32C50.6667 42.4 42.4 50.6667 32 50.6667C21.6 50.6667 13.3334 42.4 13.3334 32C13.3334 21.6 21.6 13.3334 32 13.3334ZM32 10.6667C20.2667 10.6667 10.6667 20.2667 10.6667 32C10.6667 43.7334 20.2667 53.3334 32 53.3334C43.7334 53.3334 53.3334 43.7334 53.3334 32C53.3334 20.2667 43.7334 10.6667 32 10.6667Z" fill="#1C2E45" fill-opacity="0.6"/>
          <path d="M26.6667 21.3333V42.6666L42.6667 32L26.6667 21.3333Z" fill="#1C2E45" fill-opacity="0.6"/>
</svg>