<svg width="64" height="64" viewBox="0 0 64 64" fill="none" xmlns="http://www.w3.org/2000/svg">
        <path d="M50.6666 32C50.6666 38.1333 48.5333 44 45.3333 48.5333L47.2 50.6667C51.2 45.6 53.6 38.9333 53.6 32C53.6 23.7333 50.4 16.2667 45.0666 10.6667L43.7333 13.3333C48 18.1333 50.6666 24.8 50.6666 32V32Z" fill="#1C2E45" fill-opacity="0.6"/>
        <path d="M42.1333 15.7334L40.8 18.4001C43.7333 22.1334 45.3333 26.9334 45.3333 32.0001C45.3333 36.5334 44 40.5334 41.8666 44.2667L43.7333 46.4001C46.6666 42.4001 48.2666 37.3334 48.2666 32.0001C48 25.8667 45.8666 20.2667 42.1333 15.7334V15.7334Z" fill="#1C2E45" fill-opacity="0.6"/>
        <path d="M39.4666 21.0667L38.1333 24.0001C39.4666 26.4001 40.2666 29.0667 40.2666 32.0001C40.2666 34.6667 39.4666 37.3334 38.4 39.7334L40.2666 42.1334C41.8666 39.2001 42.9333 35.7334 42.9333 32.2667C42.6666 28.0001 41.6 24.2667 39.4666 21.0667V21.0667Z" fill="#1C2E45" fill-opacity="0.6"/>
        <path d="M21.3333 22.6667H10.6667V38.6667H21.3333L34.6667 49.3333V12L21.3333 22.6667Z" fill="#1C2E45" fill-opacity="0.6"/>
</svg>