<svg width="64" height="64" viewBox="0 0 64 64" fill="none" xmlns="http://www.w3.org/2000/svg">
          <path d="M33.32 32.3733V22.6667H30.6533V32.3733C29.8506 32.8427 29.32 33.7013 29.32 34.6827C29.32 36.1547 30.5146 37.3493 31.9866 37.3493C33.4586 37.3493 34.6533 36.1547 34.6533 34.6827C34.6533 33.7013 34.1226 32.8427 33.3333 32.3813L33.32 32.3733Z" fill="#1C2E45" fill-opacity="0.6"/>
          <path d="M31.9866 16C21.6773 16 13.32 24.3573 13.32 34.6667C13.32 44.976 21.6773 53.3333 31.9866 53.3333C42.296 53.3333 50.6533 44.976 50.6533 34.6667C50.6533 24.3573 42.296 16 31.9866 16ZM31.9866 49.3333C23.8853 49.3333 17.32 42.768 17.32 34.6667C17.32 26.5653 23.8853 20 31.9866 20C40.088 20 46.6533 26.5653 46.6533 34.6667C46.6373 42.76 40.08 49.3173 31.9893 49.3333H31.9866Z" fill="#1C2E45" fill-opacity="0.6"/>
          <path d="M26.6533 10.6667H37.32V14.6667H26.6533V10.6667Z" fill="#1C2E45" fill-opacity="0.6"/>
          <path d="M10.6667 22.5014L17.9013 14.6641L20.84 17.3761L13.6053 25.2134L10.6667 22.5014V22.5014Z" fill="#1C2E45" fill-opacity="0.6"/>
          <path d="M43.1493 17.3839L46.088 14.6719L53.3227 22.5092L50.384 25.2212L43.1493 17.3839Z" fill="#1C2E45" fill-opacity="0.6"/>
</svg>